<?xml version="1.0" encoding="UTF-8"?>
<svg fill="none" viewBox="0 0 22 19" xmlns="http://www.w3.org/2000/svg">
<path d="m19.244 2.7485c-1.6819-1.663-4.4201-1.6646-6.1041-0.00494l-2.1492 2.1685-2.1709-2.1465c-1.6861-1.6837-4.42-1.6761-6.0761-0.02226l-0.00528 0.00527c-0.80794 0.79886-1.2388 1.8547-1.2388 2.9965 0 1.126 0.44247 2.19 1.2447 3.0023l8.2357 8.1432 8.264-8.1713c1.6771-1.6583 1.6694-4.3364 0.0053-5.9655l-0.0053-0.00523zm-8.264 16.252-9.2963-9.1919c-1.0778-1.0879-1.6841-2.5311-1.6841-4.0631s0.58382-2.9752 1.6841-4.0631c2.2455-2.2425 5.928-2.2425 8.196 0.0222l1.1003 1.0879 1.1002-1.1101c2.268-2.2425 5.9505-2.2425 8.2185 0 2.2679 2.2203 2.2679 5.8615 0 8.104l-9.3187 9.2141z" clip-rule="evenodd" fill="#000" fill-rule="evenodd"/>
</svg>
